<svg xmlns="http://www.w3.org/2000/svg" viewBox="0 0 235.89 97.62"><defs><style>.cls-1{fill:#fcfcfc;}.cls-2{fill:#f5f7f5;}.cls-3{fill:#010700;}.cls-4{fill:#67737e;}.cls-5{fill:#fff;}</style></defs><g id="Layer_2" data-name="Layer 2"><g id="Layer_1-2" data-name="Layer 1"><path class="cls-1" d="M117.09,88.52a3,3,0,0,1-.8,2,2.46,2.46,0,0,1-1.9.9,2.66,2.66,0,0,1-2-.9,2.79,2.79,0,0,1-.8-2,2.71,2.71,0,0,1,.8-2,2.52,2.52,0,0,1,2-.9,2.32,2.32,0,0,1,1.9.9A3,3,0,0,1,117.09,88.52Zm1.2,3.9V79.12h-1.2v6.8c-.1-.1-.2-.2-.2-.3a3.64,3.64,0,0,0-5.4,0,4.3,4.3,0,0,0-1.1,2.8,4.11,4.11,0,0,0,1.1,2.8,3.64,3.64,0,0,0,5.4,0c.1-.1.2-.2.2-.3v1.3h1.2Z"/><path class="cls-1" d="M124.28,81.92a1,1,0,0,0-1.2,0c0,.2-.1.4-.1.6a.76.76,0,0,0,.2.5c.1.2.3.2.6.2a1.07,1.07,0,0,0,.6-.2.76.76,0,0,0,.2-.5A.86.86,0,0,0,124.28,81.92Zm.1,10.5v-7.8h-1.2v7.8Z"/><path class="cls-1" d="M135.56,88.52a3,3,0,0,1-.8,2,2.46,2.46,0,0,1-3.8,0,2.79,2.79,0,0,1-.8-2,3,3,0,0,1,.8-2,2.46,2.46,0,0,1,3.8,0A3,3,0,0,1,135.56,88.52Zm-5.5,4.9h-1.3a3.48,3.48,0,0,0,1.2,2.2,3.85,3.85,0,0,0,2.9,1.2,4,4,0,0,0,2.9-1.2,3.78,3.78,0,0,0,1.2-2.8v-8.2h-1.2v1.3c-.1-.1-.1-.2-.2-.2a3.73,3.73,0,0,0-2.7-1.2,3.42,3.42,0,0,0-2.7,1.2,4.3,4.3,0,0,0-1.1,2.8,4.11,4.11,0,0,0,1.1,2.8,3.64,3.64,0,0,0,5.4,0c.1-.1.1-.2.2-.2v1.7a3,3,0,0,1-.8,2,2.79,2.79,0,0,1-2,.8,3,3,0,0,1-2-.8A2,2,0,0,1,130.06,93.42Z"/><path class="cls-1" d="M142.76,81.92a1,1,0,0,0-1.2,0,.73.73,0,0,0-.2.6.76.76,0,0,0,.2.5c.1.2.3.2.6.2a1.07,1.07,0,0,0,.6-.2.76.76,0,0,0,.2-.5C143.06,82.32,143,82.12,142.76,81.92Zm.1,10.5v-7.8h-1.2v7.8Z"/><path class="cls-1" d="M146.74,85.72h1.9v6.6h1.2v-6.6h2v-1.1h-1.9v-3h-1.2v3h-1.9l-.1,1.1Z"/><path class="cls-1" d="M161.86,88.52a3,3,0,0,1-.8,2,2.46,2.46,0,0,1-1.9.9,2.66,2.66,0,0,1-2-.9,2.79,2.79,0,0,1-.8-2,2.71,2.71,0,0,1,.8-2,2.52,2.52,0,0,1,2-.9,2.32,2.32,0,0,1,1.9.9A3,3,0,0,1,161.86,88.52Zm1.3,3.9v-7.8H162v1.3c-.1-.1-.2-.2-.2-.3a3.64,3.64,0,0,0-5.4,0,4.3,4.3,0,0,0-1.1,2.8,4.11,4.11,0,0,0,1.1,2.8,3.64,3.64,0,0,0,5.4,0c.1-.1.2-.2.2-.3v1.3h1.2Z"/><path class="cls-1" d="M169.16,92.42V79.12H168v13.3Z"/><path class="cls-1" d="M188.4,93.42l3.7-8.8h-1.4l-2.3,6-2.5-6.4-2.5,6.4-2.3-6h-1.4l3.7,8.8,2.5-6.3Z"/><path class="cls-1" d="M202,88.52a3,3,0,0,1-.8,2,2.46,2.46,0,0,1-1.9.9,2.66,2.66,0,0,1-2-.9,2.79,2.79,0,0,1-.8-2,2.71,2.71,0,0,1,.8-2,2.52,2.52,0,0,1,2-.9,2.32,2.32,0,0,1,1.9.9A3,3,0,0,1,202,88.52Zm1.2,3.9v-7.8H202v1.3c-.1-.1-.2-.2-.2-.3a3.64,3.64,0,0,0-5.4,0,4.3,4.3,0,0,0-1.1,2.8,4.11,4.11,0,0,0,1.1,2.8,3.64,3.64,0,0,0,5.4,0c.1-.1.2-.2.2-.3v1.3h1.2Z"/><path class="cls-1" d="M209.24,92.42V79.12h-1.3v13.3Z"/><path class="cls-1" d="M215.25,92.42V79.12h-1.2v13.3Z"/><path class="cls-1" d="M227.66,88.32a3.78,3.78,0,0,0-1.2-2.8,3.84,3.84,0,0,0-2.8-1.1,4.1,4.1,0,0,0-2.9,7,3.81,3.81,0,0,0,1.3.9,4.84,4.84,0,0,0,1.8.3,3.61,3.61,0,0,0,2-.6,3.35,3.35,0,0,0,1.5-1.8H226a2.84,2.84,0,0,1-1,.9,2.77,2.77,0,0,1-1.3.3,2.41,2.41,0,0,1-1.8-.7,2.75,2.75,0,0,1-1-1.6h6.9l-.1-.8Zm-1.4-.4h-5.5a3.55,3.55,0,0,1,.4-.9,2.81,2.81,0,0,1,2.4-1.4,3,3,0,0,1,1.8.6A2.84,2.84,0,0,1,226.26,87.92Z"/><path class="cls-1" d="M230.79,85.72h1.9v6.6h1.2v-6.6h2v-1.1H234v-3h-1.2v3h-1.9l-.1,1.1Z"/><path class="cls-2" d="M115,30.09a1.42,1.42,0,0,1-.6-.2.76.76,0,0,1-.2-.5V5.19a1.07,1.07,0,0,1,.2-.6.86.86,0,0,1,.6-.3h10.3c3.6,0,6.3.6,8.2,1.7a5.45,5.45,0,0,1,2.8,5.1,4.62,4.62,0,0,1-1,3.1,9.22,9.22,0,0,1-3.5,2.4l-.1.1a.1.1,0,0,0,.1.1,8.88,8.88,0,0,1,4,2.5A5.49,5.49,0,0,1,137,23a5.78,5.78,0,0,1-2.7,5.3c-1.8,1.1-4.6,1.7-8.3,1.7l-11,.1Zm11-15.7a2.35,2.35,0,0,0,1.9-.7,2.06,2.06,0,0,0,.7-1.7,2.5,2.5,0,0,0-.8-1.8,3,3,0,0,0-2.1-.7h-2.8a.85.85,0,0,0-.6.2.76.76,0,0,0-.2.5v3.4c0,.3,0,.5.1.6a.52.52,0,0,0,.4.2Zm-.2,10.5a3,3,0,0,0,2.2-.8,2.73,2.73,0,0,0,.8-1.9,2.5,2.5,0,0,0-.8-1.8,2.82,2.82,0,0,0-2.1-.7h-3a.71.71,0,0,0-.8.8v3.6c0,.3,0,.5.1.6a.52.52,0,0,0,.4.2Z"/><path class="cls-2" d="M139.54,30.09c-.2,0-.3-.1-.5-.2a.76.76,0,0,1-.2-.5,1.49,1.49,0,0,1,.1-.6l8.4-23.7a.92.92,0,0,1,.4-.6,1.17,1.17,0,0,1,.7-.2h6.8a.91.91,0,0,1,.7.3,1.79,1.79,0,0,1,.5.7l8.3,23.6c0,.2.1.3.1.4a4.33,4.33,0,0,1-.1.5.52.52,0,0,1-.4.2h-6.8a.76.76,0,0,1-.8-.6l-1.4-4c-.1-.2-.1-.3-.2-.3a.37.37,0,0,0-.3-.1h-7.4c-.3,0-.5.1-.5.4l-1.4,4.1c-.1.4-.4.5-.8.5l-5.2.1Zm13.6-10.9c.3,0,.4-.1.4-.3a1,1,0,0,0-.1-.4l-2.1-5.9a.2.2,0,0,0-.4,0l-2.1,5.9a.37.37,0,0,0-.1.3c0,.3.1.4.4.4Z"/><path class="cls-2" d="M189.76,4.29c.3,0,.5.2.5.6v24.5c0,.2-.1.3-.2.5a.85.85,0,0,1-.6.2h-4.7a.75.75,0,0,1-.5-.1c-.1-.1-.3-.2-.4-.4l-9.6-13c-.1-.1-.2-.2-.2-.1s-.1.1-.1.2v12.6c0,.3,0,.5-.2.6a1,1,0,0,1-.7.2h-4.7c-.6,0-.9-.2-.9-.7V5.09a.74.74,0,0,1,.8-.8H174a1.48,1.48,0,0,1,.7.1,2.25,2.25,0,0,1,.5.5l8.3,11.6a.54.54,0,0,0,.4.3c.1,0,.2-.1.2-.4V5.09c0-.5.3-.7.8-.7h4.9Z"/><path class="cls-2" d="M217.9,29a1.27,1.27,0,0,1,.1.6c0,.4-.2.5-.6.5h-6.8a1.36,1.36,0,0,1-1.3-.7l-4.2-9.6c-.1-.1-.2-.2-.3-.2s-.3.1-.5.4l-2.5,3.1a1.55,1.55,0,0,0-.2.8v5.2a1,1,0,0,1-.3.8,2,2,0,0,1-.9.2h-5.8a1,1,0,0,1-.7-.2,1.17,1.17,0,0,1-.2-.7V5.09a1.42,1.42,0,0,1,.2-.6.76.76,0,0,1,.5-.2H201c.4,0,.6.2.6.7v8.8c0,.3.1.4.2.4s.2-.1.4-.2l6.4-8.9a1.7,1.7,0,0,1,.6-.6,2,2,0,0,1,.9-.2h5.3a1.45,1.45,0,0,1,.7.2c.2.1.2.2.2.4a.52.52,0,0,1-.2.4l-5.7,7a.73.73,0,0,0-.2.6.9.9,0,0,0,.1.5Z"/><path class="cls-3" d="M136.92,54.34a8.06,8.06,0,0,1-1.2,4.4,7.29,7.29,0,0,1-3.4,2.8,11.46,11.46,0,0,1-5,1h-4.8c-.3,0-.4.1-.4.4v7.9a1,1,0,0,1-.3.8,2,2,0,0,1-.9.2H115a1,1,0,0,1-.7-.2,1.17,1.17,0,0,1-.2-.7V46.74c0-.5.2-.8.7-.8h11.6a12.85,12.85,0,0,1,5.3,1,7.94,7.94,0,0,1,3.8,2.9A6.56,6.56,0,0,1,136.92,54.34Zm-8.1-.1a2.52,2.52,0,0,0-.9-2,3,3,0,0,0-2.1-.8h-3a.71.71,0,0,0-.8.8v4c0,.3,0,.5.1.6a.59.59,0,0,0,.5.2H126a2.79,2.79,0,0,0,2-.8A2.57,2.57,0,0,0,128.82,54.24Z"/><path class="cls-3" d="M147.05,45.94c.4,0,.6.2.6.7v24.2a1,1,0,0,1-.3.8,2,2,0,0,1-.9.2h-5.8a1,1,0,0,1-.7-.2,1.17,1.17,0,0,1-.2-.7V46.74a.85.85,0,0,1,.2-.6.76.76,0,0,1,.5-.2Z"/><path class="cls-3" d="M150.5,46.74a1.42,1.42,0,0,1,.2-.6c.1-.2.4-.2.7-.2h21a.85.85,0,0,1,.6.2c.2.1.2.3.2.6v4.2a.71.71,0,0,1-.8.7h-6.2c-.3,0-.4.1-.4.3v19.2a.85.85,0,0,1-.2.6.76.76,0,0,1-.5.2h-6.7c-.4,0-.6-.2-.6-.7V52c0-.3-.1-.5-.4-.5h-6.2c-.5,0-.8-.2-.8-.7v-4.1Z"/><path class="cls-4" d="M116.9,26.51v-1.2c0-.1.1-.4.2-.1A2,2,0,0,1,116.9,26.51Z"/><path class="cls-5" d="M31.08,63.05H49.81V97.62H31.08Z"/><path class="cls-5" d="M67.43,0H32.52a6.9,6.9,0,0,0-1.44.11V34.68H49.92V19a3.89,3.89,0,0,0,.66-.11H67.43a11.54,11.54,0,0,1,3.87.77,10.34,10.34,0,0,1-4,20H21.11c-3.43,0-7.31.33-10.19-1.67C3.72,32.69,1.5,13.19.28,9.64c-.66,5.43-.44,28.48,4,37.45C7.15,52.85,9.7,56.4,15.46,57.62a38.18,38.18,0,0,0,7.87.77c9.86.11,19.61,0,29.47,0,5.43,0,10.75.11,16.18-.11,14.07-.66,26.15-12.19,27.48-26A28.86,28.86,0,0,0,67.43,0ZM34.3,49.53a19.24,19.24,0,0,1-7,4.76c-3,1.11-8.87.78-11.64-.77C12.47,51.74,11,50.64,9,47.64,2.94,37,2.16,24.93,2.5,24.93c.77,9,5.65,18.73,13.4,22.82,5.1,2.66,14.08.34,19.73-.88a14,14,0,0,1,1.44-.33C36.07,47.64,35.18,48.64,34.3,49.53ZM89.14,26.92a19.68,19.68,0,0,1-6,10.75c-.22.22-.33.45-.78.45.67-1,1.22-1.89,1.78-2.89,2.54-5.31,1.88-10.3-1.33-15.06a24.62,24.62,0,0,0-5-5.21c-.11,0-.11-.11-.33-.22a12,12,0,0,1,2.1.33,19.32,19.32,0,0,1,5,1.88A9.2,9.2,0,0,1,89.14,26.92Z"/><path class="cls-5" d="M94.57,65.37a28.65,28.65,0,0,0-4.65-12.74,35.16,35.16,0,0,1-16.29,9.42,10.15,10.15,0,0,1,.55.88,10.2,10.2,0,0,1-6.31,15.63,22.07,22.07,0,0,1-4.65.33H52.69V97.62h14a26.41,26.41,0,0,0,9.75-2A28.93,28.93,0,0,0,94.57,65.37ZM90,74.46c-.44,2.1-.89,6.31-6.76,12C74.52,94.85,55.35,93,55.35,93s34-1.77,33.57-32.24C88.81,59.17,91.25,69.14,90,74.46Z"/></g></g></svg>