<svg xmlns="http://www.w3.org/2000/svg" viewBox="0 0 281.13 130"><defs><style>.cls-1{fill:#fcfcfc;}.cls-2{fill:#f5f7f5;}.cls-3{fill:#010700;}.cls-4{fill:#67737e;}.cls-5{fill:#fafcfa;}.cls-6{fill:#070707;}</style></defs><g id="Layer_2" data-name="Layer 2"><g id="Layer_1-2" data-name="Layer 1"><path class="cls-1" d="M162.33,114.68a3,3,0,0,1-.8,2,2.46,2.46,0,0,1-1.9.9,2.66,2.66,0,0,1-2-.9,2.79,2.79,0,0,1-.8-2,2.71,2.71,0,0,1,.8-2,2.52,2.52,0,0,1,2-.9,2.32,2.32,0,0,1,1.9.9A3,3,0,0,1,162.33,114.68Zm1.2,3.9v-13.3h-1.2v6.8c-.1-.1-.2-.2-.2-.3a3.64,3.64,0,0,0-5.4,0,4.3,4.3,0,0,0-1.1,2.8,4.11,4.11,0,0,0,1.1,2.8,3.64,3.64,0,0,0,5.4,0c.1-.1.2-.2.2-.3v1.3h1.2Z"/><path class="cls-1" d="M169.52,108.08a1,1,0,0,0-1.2,0c0,.2-.1.4-.1.6a.76.76,0,0,0,.2.5c.1.2.3.2.6.2a1.07,1.07,0,0,0,.6-.2.76.76,0,0,0,.2-.5A.86.86,0,0,0,169.52,108.08Zm.1,10.5v-7.8h-1.2v7.8Z"/><path class="cls-1" d="M180.8,114.68a3,3,0,0,1-.8,2,2.46,2.46,0,0,1-3.8,0,2.79,2.79,0,0,1-.8-2,3,3,0,0,1,.8-2,2.46,2.46,0,0,1,3.8,0A3,3,0,0,1,180.8,114.68Zm-5.5,4.9H174a3.48,3.48,0,0,0,1.2,2.2,3.85,3.85,0,0,0,2.9,1.2,4,4,0,0,0,2.9-1.2,3.78,3.78,0,0,0,1.2-2.8v-8.2H181v1.3c-.1-.1-.1-.2-.2-.2a3.73,3.73,0,0,0-2.7-1.2,3.42,3.42,0,0,0-2.7,1.2,4.3,4.3,0,0,0-1.1,2.8,4.11,4.11,0,0,0,1.1,2.8,3.64,3.64,0,0,0,5.4,0c.1-.1.1-.2.2-.2V119a3,3,0,0,1-.8,2,2.79,2.79,0,0,1-2,.8,3,3,0,0,1-2-.8A2,2,0,0,1,175.3,119.58Z"/><path class="cls-1" d="M188,108.08a1,1,0,0,0-1.2,0,.73.73,0,0,0-.2.6.76.76,0,0,0,.2.5c.1.2.3.2.6.2a1.07,1.07,0,0,0,.6-.2.76.76,0,0,0,.2-.5C188.3,108.48,188.2,108.28,188,108.08Zm.1,10.5v-7.8h-1.2v7.8Z"/><path class="cls-1" d="M192,111.88h1.9v6.6h1.2v-6.6h2v-1.1h-1.9v-3H194v3h-1.9v1.1Z"/><path class="cls-1" d="M207.1,114.68a3,3,0,0,1-.8,2,2.46,2.46,0,0,1-1.9.9,2.66,2.66,0,0,1-2-.9,2.79,2.79,0,0,1-.8-2,2.71,2.71,0,0,1,.8-2,2.52,2.52,0,0,1,2-.9,2.32,2.32,0,0,1,1.9.9A3,3,0,0,1,207.1,114.68Zm1.3,3.9v-7.8h-1.2v1.3c-.1-.1-.2-.2-.2-.3a3.64,3.64,0,0,0-5.4,0,4.3,4.3,0,0,0-1.1,2.8,4.11,4.11,0,0,0,1.1,2.8,3.64,3.64,0,0,0,5.4,0c.1-.1.2-.2.2-.3v1.3h1.2Z"/><path class="cls-1" d="M214.4,118.58v-13.3h-1.2v13.3Z"/><path class="cls-1" d="M233.64,119.58l3.7-8.8h-1.4l-2.3,6-2.5-6.4-2.5,6.4-2.3-6h-1.4l3.7,8.8,2.5-6.3Z"/><path class="cls-1" d="M247.19,114.68a3,3,0,0,1-.8,2,2.46,2.46,0,0,1-1.9.9,2.66,2.66,0,0,1-2-.9,2.79,2.79,0,0,1-.8-2,2.71,2.71,0,0,1,.8-2,2.52,2.52,0,0,1,2-.9,2.32,2.32,0,0,1,1.9.9A3,3,0,0,1,247.19,114.68Zm1.2,3.9v-7.8h-1.2v1.3c-.1-.1-.2-.2-.2-.3a3.64,3.64,0,0,0-5.4,0,4.3,4.3,0,0,0-1.1,2.8,4.11,4.11,0,0,0,1.1,2.8,3.64,3.64,0,0,0,5.4,0c.1-.1.2-.2.2-.3v1.3h1.2Z"/><path class="cls-1" d="M254.48,118.58v-13.3h-1.3v13.3Z"/><path class="cls-1" d="M260.49,118.58v-13.3h-1.2v13.3Z"/><path class="cls-1" d="M272.9,114.48a3.78,3.78,0,0,0-1.2-2.8,3.84,3.84,0,0,0-2.8-1.1,4.1,4.1,0,0,0-2.9,7,3.81,3.81,0,0,0,1.3.9,4.84,4.84,0,0,0,1.8.3,3.61,3.61,0,0,0,2-.6,3.35,3.35,0,0,0,1.5-1.8h-1.4a2.84,2.84,0,0,1-1,.9,2.77,2.77,0,0,1-1.3.3,2.41,2.41,0,0,1-1.8-.7,2.75,2.75,0,0,1-1-1.6H273v-.8Zm-1.4-.4H266a3.55,3.55,0,0,1,.4-.9,2.81,2.81,0,0,1,2.4-1.4,3,3,0,0,1,1.8.6A2.84,2.84,0,0,1,271.5,114.08Z"/><path class="cls-1" d="M276,111.88h1.9v6.6h1.2v-6.6h2v-1.1h-1.9v-3H278v3h-1.9v1.1Z"/><path class="cls-2" d="M153.69,43.58a1.42,1.42,0,0,1-.6-.2.76.76,0,0,1-.2-.5V18.68a1.07,1.07,0,0,1,.2-.6.86.86,0,0,1,.6-.3H164c3.6,0,6.3.6,8.2,1.7a5.45,5.45,0,0,1,2.8,5.1,4.62,4.62,0,0,1-1,3.1,9.22,9.22,0,0,1-3.5,2.4l-.1.1a.1.1,0,0,0,.1.1,8.88,8.88,0,0,1,4,2.5,5.49,5.49,0,0,1,1.2,3.7,5.78,5.78,0,0,1-2.7,5.3c-1.8,1.1-4.6,1.7-8.3,1.7h-11Zm11-15.7a2.35,2.35,0,0,0,1.9-.7,2.06,2.06,0,0,0,.7-1.7,2.5,2.5,0,0,0-.8-1.8,3,3,0,0,0-2.1-.7h-2.8a.85.85,0,0,0-.6.2.76.76,0,0,0-.2.5v3.4c0,.3,0,.5.1.6a.52.52,0,0,0,.4.2Zm-.2,10.5a3,3,0,0,0,2.2-.8,2.73,2.73,0,0,0,.8-1.9,2.5,2.5,0,0,0-.8-1.8,2.82,2.82,0,0,0-2.1-.7h-3a.71.71,0,0,0-.8.8v3.6c0,.3,0,.5.1.6a.52.52,0,0,0,.4.2Z"/><path class="cls-2" d="M178.24,43.58c-.2,0-.3-.1-.5-.2a.76.76,0,0,1-.2-.5,1.49,1.49,0,0,1,.1-.6l8.4-23.7a.92.92,0,0,1,.4-.6,1.17,1.17,0,0,1,.7-.2h6.8a.91.91,0,0,1,.7.3,1.79,1.79,0,0,1,.5.7l8.3,23.6c0,.2.1.3.1.4a4.33,4.33,0,0,1-.1.5.52.52,0,0,1-.4.2h-6.8a.76.76,0,0,1-.8-.6l-1.4-4c-.1-.2-.1-.3-.2-.3a.37.37,0,0,0-.3-.1h-7.4c-.3,0-.5.1-.5.4l-1.4,4.1c-.1.4-.4.5-.8.5h-5.2Zm13.6-10.9c.3,0,.4-.1.4-.3a1,1,0,0,0-.1-.4l-2.1-5.9a.2.2,0,0,0-.4,0l-2.1,5.9a.37.37,0,0,0-.1.3c0,.3.1.4.4.4Z"/><path class="cls-2" d="M228.46,17.78c.3,0,.5.2.5.6v24.5c0,.2-.1.3-.2.5a.85.85,0,0,1-.6.2h-4.7a.75.75,0,0,1-.5-.1c-.1-.1-.3-.2-.4-.4l-9.6-13c-.1-.1-.2-.2-.2-.1s-.1.1-.1.2v12.6c0,.3,0,.5-.2.6a1,1,0,0,1-.7.2h-4.7c-.6,0-.9-.2-.9-.7V18.58a.74.74,0,0,1,.8-.8h5.7a1.48,1.48,0,0,1,.7.1,2.25,2.25,0,0,1,.5.5l8.3,11.6a.54.54,0,0,0,.4.3c.1,0,.2-.1.2-.4V18.58c0-.5.3-.7.8-.7h4.9Z"/><path class="cls-2" d="M256.6,42.48a1.27,1.27,0,0,1,.1.6c0,.4-.2.5-.6.5h-6.8a1.36,1.36,0,0,1-1.3-.7l-4.2-9.6c-.1-.1-.2-.2-.3-.2s-.3.1-.5.4l-2.5,3.1a1.55,1.55,0,0,0-.2.8v5.2a1,1,0,0,1-.3.8,2,2,0,0,1-.9.2h-5.8a1,1,0,0,1-.7-.2,1.17,1.17,0,0,1-.2-.7V18.58a1.42,1.42,0,0,1,.2-.6.76.76,0,0,1,.5-.2h6.6c.4,0,.6.2.6.7v8.8c0,.3.1.4.2.4s.2-.1.4-.2l6.4-8.9a1.7,1.7,0,0,1,.6-.6,2,2,0,0,1,.9-.2h5.3a1.45,1.45,0,0,1,.7.2c.2.1.2.2.2.4a.52.52,0,0,1-.2.4l-5.7,7a.73.73,0,0,0-.2.6.9.9,0,0,0,.1.5Z"/><path class="cls-3" d="M175.62,67.82a8.06,8.06,0,0,1-1.2,4.4A7.29,7.29,0,0,1,171,75a11.46,11.46,0,0,1-5,1h-4.8c-.3,0-.4.1-.4.4v7.9a1,1,0,0,1-.3.8,2,2,0,0,1-.9.2h-5.9a1,1,0,0,1-.7-.2,1.17,1.17,0,0,1-.2-.7V60.22c0-.5.2-.8.7-.8h11.6a12.85,12.85,0,0,1,5.3,1,7.94,7.94,0,0,1,3.8,2.9A6.56,6.56,0,0,1,175.62,67.82Zm-8.1-.1a2.52,2.52,0,0,0-.9-2,3,3,0,0,0-2.1-.8h-3a.71.71,0,0,0-.8.8v4c0,.3,0,.5.1.6a.59.59,0,0,0,.5.2h3.4a2.79,2.79,0,0,0,2-.8A2.57,2.57,0,0,0,167.52,67.72Z"/><path class="cls-3" d="M185.75,59.42c.4,0,.6.2.6.7v24.2a1,1,0,0,1-.3.8,2,2,0,0,1-.9.2h-5.8a1,1,0,0,1-.7-.2,1.17,1.17,0,0,1-.2-.7V60.22a.85.85,0,0,1,.2-.6.76.76,0,0,1,.5-.2Z"/><path class="cls-3" d="M189.2,60.22a1.42,1.42,0,0,1,.2-.6c.1-.2.4-.2.7-.2h21a.85.85,0,0,1,.6.2c.2.1.2.3.2.6v4.2a.71.71,0,0,1-.8.7h-6.2c-.3,0-.4.1-.4.3v19.2a.85.85,0,0,1-.2.6.76.76,0,0,1-.5.2h-6.7c-.4,0-.6-.2-.6-.7V65.52c0-.3-.1-.5-.4-.5h-6.2c-.5,0-.8-.2-.8-.7v-4.1Z"/><path class="cls-4" d="M155.54,40V38.8c0-.1.1-.4.2-.1A2,2,0,0,1,155.54,40Z"/><path class="cls-5" d="M106.5,0h-83A23.47,23.47,0,0,0,0,23.5v83A23.47,23.47,0,0,0,23.5,130h83A23.47,23.47,0,0,0,130,106.5v-83A23.54,23.54,0,0,0,106.5,0Z"/><path class="cls-6" d="M42.1,79.1H59v31.2H42.1Z"/><path class="cls-6" d="M74.9,22.2H43.4a6.15,6.15,0,0,0-1.3.1V53.5h17V39.3a3.54,3.54,0,0,0,.6-.1H74.9a10.39,10.39,0,0,1,3.5.7,9.33,9.33,0,0,1-3.6,18H33.1c-3.1,0-6.6.3-9.2-1.5-6.5-4.7-8.5-22.3-9.6-25.5-.6,4.9-.4,25.7,3.6,33.8,2.6,5.2,4.9,8.4,10.1,9.5a34.19,34.19,0,0,0,7.1.7c8.9.1,17.7,0,26.6,0,4.9,0,9.7.1,14.6-.1,12.7-.6,23.6-11,24.8-23.5A26,26,0,0,0,74.9,22.2ZM45,66.9a17.25,17.25,0,0,1-6.3,4.3c-2.7,1-8,.7-10.5-.7a14,14,0,0,1-6-5.3c-5.5-9.6-6.2-20.5-5.9-20.5.7,8.1,5.1,16.9,12.1,20.6,4.6,2.4,12.7.3,17.8-.8a13,13,0,0,1,1.3-.3C46.6,65.2,45.8,66.1,45,66.9ZM94.5,46.5a17.78,17.78,0,0,1-5.4,9.7c-.2.2-.3.4-.7.4.6-.9,1.1-1.7,1.6-2.6,2.3-4.8,1.7-9.3-1.2-13.6a22.25,22.25,0,0,0-4.5-4.7c-.1,0-.1-.1-.3-.2a10.79,10.79,0,0,1,1.9.3,17.42,17.42,0,0,1,4.5,1.7A8.32,8.32,0,0,1,94.5,46.5Z"/><path class="cls-6" d="M99.4,81.2a25.9,25.9,0,0,0-4.2-11.5,31.7,31.7,0,0,1-14.7,8.5,9.75,9.75,0,0,1-5.2,14.9,19.81,19.81,0,0,1-4.2.3H61.6v16.9H74.2a23.85,23.85,0,0,0,8.8-1.8A26.12,26.12,0,0,0,99.4,81.2Zm-4.1,8.2c-.4,1.9-.8,5.7-6.1,10.8-7.9,7.6-25.2,5.9-25.2,5.9S94.7,104.5,94.3,77C94.2,75.6,96.4,84.6,95.3,89.4Z"/></g></g></svg>